<svg xmlns="http://www.w3.org/2000/svg" viewBox="0 0 364.91 222.99"><defs><style>.cls-1{fill:#ff5e00;}.cls-2{fill:#828282;}</style></defs><title>logo_ICO</title><g id="Calque_2" data-name="Calque 2"><g id="Calque_1-2" data-name="Calque 1"><g id="Nouveau_symbole_25" data-name="Nouveau symbole 25"><path class="cls-1" d="M14,81.92c0,9.3,7.19,15.89,16.13,15.89,8,0,13-5.2,14.32-10.46l-8.1-2.47a6.19,6.19,0,0,1-6.22,4.47c-3.81,0-7-2.66-7-7.43s3.08-7.5,6.89-7.5a5.91,5.91,0,0,1,6,4.48l8.22-2.48C42.93,71,38.09,66,29.82,66A15.5,15.5,0,0,0,14,81.92Z"/><path class="cls-1" d="M29.21,114.66a15.92,15.92,0,1,0,0,31.84,15.53,15.53,0,0,0,15.95-15.95C45.16,121.25,38.21,114.66,29.21,114.66Zm0,23.38c-3.44,0-6.77-2.47-6.77-7.49s3.33-7.43,6.77-7.43S36,125.48,36,130.55,32.72,138,29.21,138Z"/><path class="cls-1" d="M29,11.24A5.62,5.62,0,1,0,23.4,5.62,5.64,5.64,0,0,0,29,11.24Z"/><path class="cls-1" d="M32.79,57.42A3.58,3.58,0,1,0,29.17,61,3.6,3.6,0,0,0,32.79,57.42Z"/><polygon class="cls-1" points="24.62 48.62 33.8 48.62 33.8 26.67 33.8 17.78 24.62 17.78 17.82 17.78 14.45 26.67 24.62 26.67 24.62 48.62"/><path class="cls-1" d="M25.63,106.08a3.58,3.58,0,1,0,3.54-3.58A3.58,3.58,0,0,0,25.63,106.08Z"/><path class="cls-1" d="M37.25,105.82l-.4-1.72c11.35-2.6,19.28-11.83,19.28-22.45,0-10.86-8.15-20.14-19.81-22.56l.36-1.74C49.17,60,57.9,69.94,57.9,81.65,57.9,93.1,49.41,103,37.25,105.82Z"/><path class="cls-1" d="M22.12,57.05A27,27,0,0,1,.54,30.88a26.86,26.86,0,0,1,20-25.79L21,6.8A25.11,25.11,0,0,0,2.31,30.88,25.19,25.19,0,0,0,22.48,55.32Z"/><path class="cls-1" d="M5.05,144.17a26.07,26.07,0,0,1-3.29-13c0-12.12,7.49-21.87,19.09-24.85l.44,1.72C10.5,110.85,3.53,119.93,3.53,131.21A24.38,24.38,0,0,0,6.59,143.3Z"/><path class="cls-2" d="M85.14,41.85v-33h5.67v33Z"/><path class="cls-2" d="M103.65,41.85H98.26V19.2h5.25v3a7.53,7.53,0,0,1,6.7-3.67c5.54,0,8.19,4,8.19,9V41.85H113V28.45c0-2.79-1.25-5-4.65-5-3.07,0-4.7,2.37-4.7,5.35Z"/><path class="cls-2" d="M127.66,34.41c.19,2.05,1.72,3.86,4.61,3.86,2.23,0,3.39-1.21,3.39-2.6,0-1.21-.83-2.14-2.65-2.52l-3.35-.74c-4-.88-6.09-3.49-6.09-6.61,0-3.95,3.63-7.3,8.33-7.3,6.32,0,8.37,4.09,8.74,6.33l-4.56,1.3a3.89,3.89,0,0,0-4.18-3.4c-1.91,0-3.26,1.21-3.26,2.61a2.48,2.48,0,0,0,2.28,2.37l3.44.7c4.28.93,6.51,3.53,6.51,6.88s-2.79,7.26-8.56,7.26c-6.55,0-9.07-4.28-9.35-6.84Z"/><path class="cls-2" d="M153.07,19.2h4.7V24h-4.7V34.5c0,2,.88,2.84,2.88,2.84a10.9,10.9,0,0,0,1.86-.19v4.47a8.47,8.47,0,0,1-3.3.51c-4.19,0-6.79-2.51-6.79-6.74V24h-4.19V19.2h1.16a3.22,3.22,0,0,0,3.49-3.54V12.27h4.89Z"/><path class="cls-2" d="M166,7.71a3.53,3.53,0,0,1,3.53,3.53A3.51,3.51,0,1,1,166,7.71ZM163.3,41.85V19.2h5.35V41.85Z"/><path class="cls-2" d="M182.47,19.2h4.7V24h-4.7V34.5c0,2,.89,2.84,2.89,2.84a11.16,11.16,0,0,0,1.86-.19v4.47a8.54,8.54,0,0,1-3.31.51c-4.18,0-6.79-2.51-6.79-6.74V24h-4.19V19.2h1.17a3.22,3.22,0,0,0,3.49-3.54V12.27h4.88Z"/><path class="cls-2" d="M201.08,42.5c-5.39,0-8.56-4-8.56-9V19.2h5.4V32.5c0,2.79,1.3,5.17,4.56,5.17s4.74-2.1,4.74-5.07V19.2h5.4V37.71a37.68,37.68,0,0,0,.23,4.14h-5.16a17.15,17.15,0,0,1-.19-2.51C206.39,41.39,203.73,42.5,201.08,42.5Z"/><path class="cls-2" d="M226.44,19.2h4.7V24h-4.7V34.5c0,2,.88,2.84,2.89,2.84a11.16,11.16,0,0,0,1.86-.19v4.47a8.54,8.54,0,0,1-3.31.51c-4.18,0-6.79-2.51-6.79-6.74V24H216.9V19.2h1.17a3.22,3.22,0,0,0,3.49-3.54V12.27h4.88Z"/><path class="cls-2" d="M269.06,37.71a36.4,36.4,0,0,0,.23,4.14h-5.16a21.3,21.3,0,0,1-.24-2.93,7.44,7.44,0,0,1-6.65,3.49c-6.51,0-10.88-5.12-10.88-11.95,0-6.52,4.42-11.87,10.79-11.87,4,0,6,1.82,6.65,3.26V8.17h5.26Zm-11.21,0c3.53,0,6-2.93,6-7.26s-2.42-7-6-7-6.14,2.75-6.14,7.08S254.17,37.67,257.85,37.67Z"/><path class="cls-2" d="M296.18,35.39c-1.21,4-4.79,7.16-10.23,7.16-6.14,0-11.58-4.46-11.58-12.14,0-7.17,5.3-11.91,11-11.91,7,0,11.07,4.61,11.07,11.77a7.73,7.73,0,0,1-.14,1.72H279.76A6.07,6.07,0,0,0,286,37.9a5.47,5.47,0,0,0,5.68-4ZM291,28c-.09-2.66-1.86-5-5.58-5a5.45,5.45,0,0,0-5.54,5Z"/><path class="cls-2" d="M83.14,77.09c0-10.75,8-17.22,16.6-17.22,8.38,0,13.36,4.93,14.84,10.7l-5.25,1.77c-1-4-4-7.21-9.59-7.21s-10.88,4-10.88,12c0,7.72,5.3,11.81,10.93,11.81a9.84,9.84,0,0,0,9.82-7.26l5.11,1.68c-1.48,5.58-6.51,10.93-14.93,10.93C90.9,94.25,83.14,87.83,83.14,77.09Z"/><path class="cls-2" d="M124.59,80.57l5.82-.88c1.3-.19,1.67-.84,1.67-1.63,0-1.9-1.3-3.44-4.28-3.44a4.36,4.36,0,0,0-4.65,4.09l-4.93-1.11c.42-3.91,4-7.4,9.54-7.4,7,0,9.63,4,9.63,8.47V89.93a20,20,0,0,0,.28,3.62h-5a12.44,12.44,0,0,1-.23-2.88,7.91,7.91,0,0,1-7,3.58c-4.75,0-7.68-3.25-7.68-6.84C117.75,83.37,120.73,81.13,124.59,80.57Zm7.49,3.59v-1l-5.91.89c-1.67.28-3,1.21-3,3.07a3,3,0,0,0,3.3,2.93C129.48,90,132.08,88.58,132.08,84.16Z"/><path class="cls-2" d="M149.3,93.55h-5.4V70.9h5.26v3a7.53,7.53,0,0,1,6.7-3.67c5.53,0,8.19,4,8.19,9V93.55h-5.4V80.15c0-2.79-1.26-5-4.65-5-3.07,0-4.7,2.37-4.7,5.35Z"/><path class="cls-2" d="M174.24,82.2c0,4.56,2.93,7.12,6.33,7.12a5.72,5.72,0,0,0,5.67-4.19L191,86.85a10.51,10.51,0,0,1-10.42,7.4c-6.66,0-11.73-5.16-11.73-12s5.07-12,11.59-12c6.09,0,9.44,3.81,10.37,7.44L186,79.41a5.33,5.33,0,0,0-5.49-4.23C177.17,75.18,174.24,77.64,174.24,82.2Z"/><path class="cls-2" d="M215.6,87.09c-1.21,4-4.79,7.16-10.24,7.16-6.14,0-11.58-4.46-11.58-12.14,0-7.16,5.3-11.91,11-11.91,7,0,11.07,4.61,11.07,11.77a7.73,7.73,0,0,1-.14,1.72H199.18a6.07,6.07,0,0,0,6.18,5.91,5.46,5.46,0,0,0,5.68-4Zm-5.16-7.35c-.1-2.65-1.86-5-5.59-5a5.44,5.44,0,0,0-5.53,5Zm-3.63-11.68h-4.42l4.14-6.89h6.37Z"/><path class="cls-2" d="M234.3,76.25a12,12,0,0,0-1.76-.14c-4.19,0-6.1,2.42-6.1,6.65V93.55h-5.39V70.9h5.25v3.63a6.86,6.86,0,0,1,6.56-3.91,7.38,7.38,0,0,1,1.44.14Z"/><path class="cls-2" d="M260.31,82.2c0,7-5,12-11.77,12s-11.72-5.07-11.72-12,5-12,11.72-12S260.31,75.27,260.31,82.2Zm-5.44,0c0-4.7-3-7.12-6.33-7.12s-6.32,2.42-6.32,7.12,3,7.21,6.32,7.21S254.87,87,254.87,82.2Z"/><path class="cls-2" d="M265.53,93.55V59.87h5.39V93.55Z"/><path class="cls-2" d="M299.63,82.2c0,7-5,12-11.77,12s-11.72-5.07-11.72-12,5-12,11.72-12S299.63,75.27,299.63,82.2Zm-5.44,0c0-4.7-3-7.12-6.33-7.12s-6.33,2.42-6.33,7.12,3,7.21,6.33,7.21S294.19,87,294.19,82.2Z"/><path class="cls-2" d="M308.19,93.51a5.52,5.52,0,0,0,5.68,4.88c4.28,0,6.42-2.18,6.42-6.79V89.23c-1,1.77-3.26,3.3-6.56,3.3-6.05,0-10.47-4.65-10.47-11,0-6,4.24-11,10.47-11,3.54,0,5.72,1.44,6.7,3.3V70.9h5.21V91.41c0,6-3.12,11.68-11.63,11.68-6,0-10.19-3.72-10.79-8.28Zm12.24-12c0-3.86-2.47-6.37-5.82-6.37s-5.9,2.51-5.9,6.37,2.37,6.42,5.9,6.42S320.43,85.41,320.43,81.5Z"/><path class="cls-2" d="M334.9,59.41a3.53,3.53,0,0,1,3.54,3.53,3.52,3.52,0,1,1-3.54-3.53Zm-2.65,34.14V70.9h5.35V93.55Z"/><path class="cls-2" d="M364.63,87.09c-1.21,4-4.79,7.16-10.23,7.16-6.14,0-11.59-4.46-11.59-12.14,0-7.16,5.31-11.91,11-11.91,7,0,11.07,4.61,11.07,11.77a7.73,7.73,0,0,1-.14,1.72H348.21a6.07,6.07,0,0,0,6.19,5.91,5.46,5.46,0,0,0,5.67-4Zm-5.16-7.35c-.1-2.65-1.86-5-5.59-5a5.44,5.44,0,0,0-5.53,5Z"/><path class="cls-2" d="M105.61,141.11a36.4,36.4,0,0,0,.23,4.14h-5.17a23.25,23.25,0,0,1-.23-2.93,7.44,7.44,0,0,1-6.65,3.49c-6.51,0-10.89-5.11-10.89-11.95,0-6.52,4.42-11.87,10.8-11.87,4,0,6,1.82,6.65,3.26V111.57h5.26Zm-11.22,0c3.54,0,6-2.93,6-7.26s-2.42-7-6-7-6.14,2.74-6.14,7.07S90.72,141.07,94.39,141.07Z"/><path class="cls-2" d="M132.73,138.79c-1.21,4-4.79,7.16-10.23,7.16-6.14,0-11.59-4.46-11.59-12.14,0-7.16,5.31-11.91,11-11.91,7,0,11.07,4.61,11.07,11.77a7.73,7.73,0,0,1-.14,1.72H116.31a6.07,6.07,0,0,0,6.19,5.91,5.46,5.46,0,0,0,5.67-4Zm-5.16-7.35c-.09-2.65-1.86-5-5.58-5a5.45,5.45,0,0,0-5.54,5Z"/><path class="cls-2" d="M149.72,145.25V111.57h5.39v33.68Z"/><path class="cls-2" d="M163.77,111.9c2.23,0,3.86,1.77,3.86,4.32,0,6-4,8.38-6.89,8.66v-2.56a4.77,4.77,0,0,0,3.73-4.28,2.44,2.44,0,0,1-1,.23,3,3,0,0,1-3.16-3.21A3.29,3.29,0,0,1,163.77,111.9Z"/><path class="cls-2" d="M187.4,111.57c8.66,0,16.8,6.38,16.8,17.17S196.06,146,187.4,146s-16.74-6.37-16.74-17.21S178.75,111.57,187.4,111.57Zm0,29.08c5.59,0,11.08-4,11.08-11.91S193,116.83,187.4,116.83s-11,4-11,11.91S181.87,140.65,187.4,140.65Z"/><path class="cls-2" d="M218,145.91c-5.39,0-8.56-4-8.56-9V122.6h5.4v13.3c0,2.79,1.3,5.17,4.56,5.17s4.74-2.1,4.74-5.07V122.6h5.4v18.51a37.68,37.68,0,0,0,.23,4.14h-5.16a17.15,17.15,0,0,1-.19-2.51C223.28,144.79,220.63,145.91,218,145.91Z"/><path class="cls-2" d="M256.41,138.79c-1.21,4-4.8,7.16-10.24,7.16-6.14,0-11.58-4.46-11.58-12.14,0-7.16,5.3-11.91,11-11.91,7,0,11.07,4.61,11.07,11.77a7.73,7.73,0,0,1-.14,1.72H240a6.07,6.07,0,0,0,6.19,5.91,5.47,5.47,0,0,0,5.68-4Zm-5.17-7.35c-.09-2.65-1.86-5-5.58-5a5.45,5.45,0,0,0-5.54,5Z"/><path class="cls-2" d="M264.55,137.81c.19,2.05,1.72,3.86,4.61,3.86,2.23,0,3.39-1.21,3.39-2.6,0-1.21-.84-2.14-2.65-2.52l-3.35-.74c-4-.88-6.09-3.49-6.09-6.61,0-3.95,3.62-7.3,8.32-7.3,6.33,0,8.38,4.09,8.75,6.33l-4.56,1.3a3.9,3.9,0,0,0-4.19-3.4c-1.9,0-3.25,1.21-3.25,2.61a2.48,2.48,0,0,0,2.28,2.37l3.44.7c4.28.93,6.51,3.54,6.51,6.88S275,146,269.2,146c-6.56,0-9.07-4.28-9.35-6.84Z"/><path class="cls-2" d="M290,122.6h4.7v4.79H290V137.9c0,2,.89,2.84,2.89,2.84a12.57,12.57,0,0,0,1.86-.18V145a8.51,8.51,0,0,1-3.3.51c-4.19,0-6.8-2.51-6.8-6.74v-11.4h-4.18V122.6h1.16a3.22,3.22,0,0,0,3.49-3.54v-3.39H290Z"/><path class="cls-1" d="M173.62,193.94a12.34,12.34,0,0,1,2.79-.33,7.08,7.08,0,0,1,1.91.24,4,4,0,0,1,1.49.75,3.34,3.34,0,0,1,.95,1.31,5.14,5.14,0,0,1,.34,1.94,5,5,0,0,1-.35,2,3.31,3.31,0,0,1-1,1.33,3.91,3.91,0,0,1-1.52.73,7.43,7.43,0,0,1-2,.23h-.85V207h-1.83Zm1.83,6.65h.73a5.31,5.31,0,0,0,1.25-.14,2.57,2.57,0,0,0,.95-.47,2.08,2.08,0,0,0,.58-.85,3.39,3.39,0,0,0,.21-1.28,3.48,3.48,0,0,0-.21-1.29,2.09,2.09,0,0,0-.55-.85,2.12,2.12,0,0,0-.87-.45,4.33,4.33,0,0,0-1.11-.13,7.37,7.37,0,0,0-1,.06Z"/><path class="cls-1" d="M190,193.75c.32.95.64,1.92,1,2.9s.63,2,.94,3.08.6,2.21.91,3.41.61,2.5.92,3.89h-1.83c-.11-.58-.22-1.14-.33-1.71s-.23-1.12-.35-1.68h-4.44c-.14.56-.26,1.12-.37,1.68s-.21,1.14-.32,1.71H184.3c.3-1.39.61-2.69.92-3.89s.62-2.34.93-3.41.62-2.1.94-3.08.64-1.94,1-2.9Zm-1,1.95c-.32,1.07-.65,2.14-1,3.21s-.61,2.17-.89,3.29h3.68c-.27-1.12-.56-2.22-.87-3.29S189.31,196.77,189,195.7Z"/><path class="cls-1" d="M205.24,193.75c-.23.6-.48,1.24-.76,1.91s-.57,1.37-.89,2.07-.62,1.38-1,2.07-.65,1.35-1,2V207h-1.83v-5.14c-.33-.62-.66-1.29-1-2s-.66-1.41-1-2.11-.61-1.4-.89-2.09-.55-1.34-.78-1.95h2c.36,1,.76,2.07,1.2,3.19s.91,2.17,1.39,3.14c.47-1,.93-2,1.37-3.14s.85-2.18,1.2-3.19Z"/><path class="cls-1" d="M211.59,205.84a2.36,2.36,0,0,0,1.7-.57,2.06,2.06,0,0,0,.6-1.56,2.25,2.25,0,0,0-.18-.92,2.92,2.92,0,0,0-.48-.72,4,4,0,0,0-.68-.6c-.26-.18-.52-.36-.79-.53l-1-.66a5,5,0,0,1-.92-.8,3.82,3.82,0,0,1-.68-1.07,3.56,3.56,0,0,1-.27-1.44A3.37,3.37,0,0,1,210,194.4a3.69,3.69,0,0,1,1.24-.71,4.62,4.62,0,0,1,1.55-.25,6,6,0,0,1,1.51.19,5,5,0,0,1,1.15.46l-.57,1.36A3.64,3.64,0,0,0,214,195a4,4,0,0,0-1-.14,2.37,2.37,0,0,0-1.59.51,1.82,1.82,0,0,0-.6,1.48,2.28,2.28,0,0,0,.19.94,2.82,2.82,0,0,0,.51.73,4.28,4.28,0,0,0,.73.59l.89.56c.31.19.63.4.95.63a4.79,4.79,0,0,1,.88.8,3.72,3.72,0,0,1,.65,1.05,3.65,3.65,0,0,1,.26,1.43,4,4,0,0,1-.25,1.42,3.11,3.11,0,0,1-.76,1.18,3.82,3.82,0,0,1-1.3.8,5.09,5.09,0,0,1-1.83.3,6.25,6.25,0,0,1-1.71-.21,5.31,5.31,0,0,1-1.3-.56l.57-1.38a5.06,5.06,0,0,0,1.09.49A4.17,4.17,0,0,0,211.59,205.84Z"/><path class="cls-1" d="M236.49,200.38a10.27,10.27,0,0,1-.42,3.15,5.13,5.13,0,0,1-1.2,2.1A4.54,4.54,0,0,1,233,206.8a8,8,0,0,1-2.47.36,13.31,13.31,0,0,1-2.92-.34V193.94c.51-.1,1-.19,1.5-.25a11.53,11.53,0,0,1,1.4-.1A8,8,0,0,1,233,194a4.54,4.54,0,0,1,1.88,1.17,5,5,0,0,1,1.2,2.1A10.27,10.27,0,0,1,236.49,200.38Zm-2,0a11.22,11.22,0,0,0-.22-2.42,4.31,4.31,0,0,0-.69-1.62,2.68,2.68,0,0,0-1.23-.92,5,5,0,0,0-1.82-.29l-.57,0-.59,0v10.35l.59.06.55,0a5,5,0,0,0,1.83-.29,2.73,2.73,0,0,0,1.23-.91,4.18,4.18,0,0,0,.7-1.62A11.19,11.19,0,0,0,234.54,200.38Z"/><path class="cls-1" d="M242.15,207V193.75h6.32v1.47H244v4.12H248v1.44H244v4.77h4.81V207Z"/><path class="cls-1" d="M267.33,205.55V207h-6.27V193.75h1.83v11.8Z"/><path class="cls-1" d="M277.35,193.75c.33.95.65,1.92,1,2.9s.62,2,.93,3.08.61,2.21.91,3.41.61,2.5.92,3.89h-1.83c-.1-.58-.21-1.14-.33-1.71s-.23-1.12-.35-1.68h-4.44q-.19.84-.36,1.68l-.33,1.71h-1.76c.3-1.39.6-2.69.91-3.89s.63-2.34.93-3.41.62-2.1.94-3.08.64-1.94,1-2.9Zm-1,1.95q-.5,1.61-1,3.21c-.32,1.07-.62,2.17-.9,3.29h3.68c-.26-1.12-.56-2.22-.87-3.29S276.69,196.77,276.36,195.7Z"/><path class="cls-1" d="M299.11,205.55V207h-6.27V193.75h1.82v11.8Z"/><path class="cls-1" d="M312.88,200.4a12.41,12.41,0,0,1-.3,2.83,6.34,6.34,0,0,1-.91,2.18,4.22,4.22,0,0,1-1.56,1.41,5.2,5.2,0,0,1-4.45,0,4.22,4.22,0,0,1-1.56-1.41,6.36,6.36,0,0,1-.93-2.18,13.55,13.55,0,0,1,0-5.67,6.33,6.33,0,0,1,.93-2.19,4.33,4.33,0,0,1,1.56-1.42,5.11,5.11,0,0,1,4.45,0,4.33,4.33,0,0,1,1.56,1.42,6.31,6.31,0,0,1,.91,2.19A12.5,12.5,0,0,1,312.88,200.4Zm-1.95,0a14.89,14.89,0,0,0-.16-2.21,6,6,0,0,0-.53-1.71,3,3,0,0,0-.95-1.12,2.37,2.37,0,0,0-1.41-.4,2.41,2.41,0,0,0-1.41.4,2.9,2.9,0,0,0-.94,1.12,5.73,5.73,0,0,0-.54,1.71,14.39,14.39,0,0,0,0,4.41,5.55,5.55,0,0,0,.54,1.71,2.83,2.83,0,0,0,.94,1.1,2.48,2.48,0,0,0,1.41.39,2.44,2.44,0,0,0,1.41-.39,2.94,2.94,0,0,0,.95-1.1,5.84,5.84,0,0,0,.53-1.71A14.75,14.75,0,0,0,310.93,200.4Z"/><path class="cls-1" d="M318.56,193.75h1.83V207h-1.83Z"/><path class="cls-1" d="M326.64,193.94a12.2,12.2,0,0,1,2.75-.33,7.38,7.38,0,0,1,1.9.23,4.06,4.06,0,0,1,1.47.73,3.27,3.27,0,0,1,.94,1.29,4.84,4.84,0,0,1,.34,1.89,4.06,4.06,0,0,1-.56,2.24,3.54,3.54,0,0,1-1.52,1.29c.17.26.37.6.62,1.05s.51.92.78,1.45.52,1.08.77,1.64.46,1.1.64,1.61h-1.84c-.15-.38-.34-.82-.56-1.3s-.45-1-.7-1.45-.48-.94-.72-1.38-.46-.82-.65-1.12l-.67.06-.69,0h-.51V207h-1.79Zm1.79,6.5h.77a3.35,3.35,0,0,0,2.16-.61,2.52,2.52,0,0,0,.75-2.08,3.52,3.52,0,0,0-.2-1.25,2,2,0,0,0-.54-.81,2.25,2.25,0,0,0-.86-.43,4.2,4.2,0,0,0-1.1-.13,7.37,7.37,0,0,0-1,.06Z"/><path class="cls-1" d="M339.92,207V193.75h6.32v1.47h-4.49v4.12h4.06v1.44h-4.06v4.77h4.81V207Z"/><rect class="cls-1" x="52.83" y="177.8" width="307.58" height="2.71"/><path class="cls-1" d="M42.5,209.55v4.07a6.66,6.66,0,0,1-6.66,6.67H2.7v-39.8H42.5v5.37h2.7v-8.07H0V223H35.84a9.37,9.37,0,0,0,9.36-9.37v-4.07Z"/><path class="cls-1" d="M25.1,193.76v11l-.51.09-.74,0a1.69,1.69,0,0,1-1.47-.63,4.21,4.21,0,0,1-.5-2.42v-8H19.17v8.09a8.78,8.78,0,0,0,.33,2.61,4.11,4.11,0,0,0,1,1.71,3.41,3.41,0,0,0,1.53.88,7,7,0,0,0,1.89.24,8.34,8.34,0,0,0,.95-.06c.33,0,.67-.09,1-.15s.66-.12,1-.19.58-.16.8-.24l.2-.08V193.76Z"/><path class="cls-1" d="M39.21,196.45a4.67,4.67,0,0,0-.91-1.75,3.41,3.41,0,0,0-1.45-.94,7.8,7.8,0,0,0-3.76-.08,17.33,17.33,0,0,0-2,.45l-.22.07V207h2.7V196.12a5.47,5.47,0,0,1,1.25-.17,1.58,1.58,0,0,1,1.53.71,5.71,5.71,0,0,1,.44,2.59V207h2.7v-7.95A9.43,9.43,0,0,0,39.21,196.45Z"/><rect class="cls-1" x="42.5" y="193.76" width="2.7" height="13.27"/><path class="cls-1" d="M54.64,204.24l-.35.2a4.13,4.13,0,0,1-.75.32,2.72,2.72,0,0,1-.85.12,1.79,1.79,0,0,1-1.08-.3,2.36,2.36,0,0,1-.7-.87,5,5,0,0,1-.39-1.41,13.46,13.46,0,0,1-.12-1.87,8.07,8.07,0,0,1,.58-3.51,1.73,1.73,0,0,1,1.64-1,2.67,2.67,0,0,1,1.49.43l.35.22.72-2.35-.22-.12a5.11,5.11,0,0,0-1.1-.46,4.61,4.61,0,0,0-1.34-.19,4.15,4.15,0,0,0-3.72,1.92,9.32,9.32,0,0,0-1.19,5.07,14,14,0,0,0,.23,2.68,6.39,6.39,0,0,0,.81,2.19,4.33,4.33,0,0,0,1.52,1.49,4.52,4.52,0,0,0,2.33.55,4.69,4.69,0,0,0,1.48-.23,4.52,4.52,0,0,0,1.1-.52l.19-.13Z"/><path class="cls-1" d="M63.14,194.58a4.07,4.07,0,0,0-3-1.14,7.25,7.25,0,0,0-1.59.17,7.67,7.67,0,0,0-1.38.44l-.25.1.59,2.38.34-.14a4.59,4.59,0,0,1,1-.33,4.46,4.46,0,0,1,1-.11,1.76,1.76,0,0,1,1.33.46,2.51,2.51,0,0,1,.45,1.73v.78a8.45,8.45,0,0,0-1.44-.13,5,5,0,0,0-1.67.27,3.88,3.88,0,0,0-1.36.81,3.75,3.75,0,0,0-.91,1.34,4.8,4.8,0,0,0-.32,1.84A4.68,4.68,0,0,0,56.3,205a3.76,3.76,0,0,0,1,1.32,3.69,3.69,0,0,0,1.44.76,5.94,5.94,0,0,0,1.71.23,12.72,12.72,0,0,0,1.82-.14,15.16,15.16,0,0,0,1.8-.4l.24-.06v-8.62A4.72,4.72,0,0,0,63.14,194.58Zm-2.6,10.3a2.06,2.06,0,0,1-1.43-.45,1.85,1.85,0,0,1-.47-1.4,2.76,2.76,0,0,1,.14-.95,1.35,1.35,0,0,1,.38-.55,1.5,1.5,0,0,1,.59-.3,2.9,2.9,0,0,1,.79-.1,4.65,4.65,0,0,1,1.1.13v3.51A6.3,6.3,0,0,1,60.54,204.88Z"/><path class="cls-1" d="M75.59,196.45a4.54,4.54,0,0,0-.92-1.75,3.32,3.32,0,0,0-1.44-.94,7.83,7.83,0,0,0-3.77-.08,16.67,16.67,0,0,0-2,.45l-.23.07V207H70V196.12a5.33,5.33,0,0,1,1.25-.17,1.58,1.58,0,0,1,1.53.71,5.71,5.71,0,0,1,.44,2.59V207h2.7v-7.95A9.82,9.82,0,0,0,75.59,196.45Z"/><path class="cls-1" d="M85.19,204.24l-.35.2a4.35,4.35,0,0,1-.74.32,2.84,2.84,0,0,1-.86.12,1.79,1.79,0,0,1-1.08-.3,2.25,2.25,0,0,1-.69-.87,4.71,4.71,0,0,1-.4-1.41,13.46,13.46,0,0,1-.12-1.87,8.07,8.07,0,0,1,.58-3.51,1.73,1.73,0,0,1,1.64-1,2.67,2.67,0,0,1,1.49.43l.35.22.73-2.35-.23-.12a5.11,5.11,0,0,0-1.1-.46,4.61,4.61,0,0,0-1.34-.19,4.15,4.15,0,0,0-3.72,1.92,9.32,9.32,0,0,0-1.19,5.07,14,14,0,0,0,.23,2.68,6.39,6.39,0,0,0,.81,2.19,4.33,4.33,0,0,0,1.52,1.49,4.52,4.52,0,0,0,2.33.55,4.69,4.69,0,0,0,1.48-.23,4.52,4.52,0,0,0,1.1-.52l.19-.13Z"/><path class="cls-1" d="M94.4,195.22a3.49,3.49,0,0,0-3.31-1.78,3.91,3.91,0,0,0-3.32,1.75,9.24,9.24,0,0,0-1.21,5.29,13.43,13.43,0,0,0,.25,2.71,6.06,6.06,0,0,0,.85,2.18,4.15,4.15,0,0,0,1.58,1.45,5,5,0,0,0,2.38.52,5.77,5.77,0,0,0,1.85-.27,4.45,4.45,0,0,0,1.12-.51l.18-.12-.53-2.27-.37.19a5.61,5.61,0,0,1-.8.33,3.5,3.5,0,0,1-1.19.19,2.42,2.42,0,0,1-1.22-.27,2,2,0,0,1-.75-.76,4,4,0,0,1-.44-1.23,11.94,11.94,0,0,1-.15-1.3h6l0-.29c0-.2,0-.4,0-.59v-.54A9.78,9.78,0,0,0,94.4,195.22Zm-3.31.61a1.08,1.08,0,0,1,1.1.82,7.94,7.94,0,0,1,.34,2.36H89.36a7.14,7.14,0,0,1,.51-2.33A1.25,1.25,0,0,1,91.09,195.83Z"/><path class="cls-1" d="M104,193.87a5.32,5.32,0,0,0-1.16-.28,9.5,9.5,0,0,0-1.19-.07,8.93,8.93,0,0,0-2.07.23,9.17,9.17,0,0,0-1.66.59l-.18.09V207h2.71V196.15a4,4,0,0,1,1.34-.22,3.92,3.92,0,0,1,1.61.31l.36.16.49-2.43Z"/><rect class="cls-1" x="42.5" y="188.37" width="2.7" height="2.88"/></g></g></g></svg>